<svg xmlns="http://www.w3.org/2000/svg" width="300" height="300" viewBox="0 0 343 150">
  <rect id="ALL_PRO_CHOCOLATE_" data-name="ALL PRO (CHOCOLATE)" width="300" height="300" fill="#f4f5fa"/>
  <g id="scm_connect_svg_light" data-name="scm connect svg light" transform="translate(138.469 60.932)">
    <path id="Path_3716" data-name="Path 3716" d="M175.35,114.522l.623-2.023,1.875-6.109a.9.9,0,0,1,1.016-.756h3.67a.9.9,0,0,1,1.026,1.014v12.928a.949.949,0,0,1-1.049,1.035c-.486-.026-.972,0-1.46,0a.881.881,0,0,1-.993-1v-11.2a.654.654,0,0,0-.188.363L176.5,119.852c-.181.593-.4.751-1,.751h-.909a.834.834,0,0,1-.93-.686q-.99-3.312-1.974-6.621l-1.34-4.474a.7.7,0,0,0-.154-.335v11.156a.88.88,0,0,1-.974.961h-1.04a.868.868,0,0,1-.93-.867,3.071,3.071,0,0,1,0-.323v-12.6a2.964,2.964,0,0,1,.028-.453.814.814,0,0,1,.677-.7,1.848,1.848,0,0,1,.323-.028h3.637a1.1,1.1,0,0,1,.651.151.991.991,0,0,1,.381.584q1.065,3.661,2.137,7.316A4.452,4.452,0,0,0,175.35,114.522Z" transform="translate(-137.371 -105.434)" fill="#bcbcbc"/>
    <path id="Path_3717" data-name="Path 3717" d="M45.92,120.091a7.53,7.53,0,0,1-3.9-.93,4.572,4.572,0,0,1-1.935-2.123.872.872,0,0,1,.635-1.314c.493-.119.988-.233,1.481-.344a.859.859,0,0,1,.93.365.938.938,0,0,1,.051.082,2.793,2.793,0,0,0,2.5,1.477,3.566,3.566,0,0,0,1.984-.356,1.267,1.267,0,0,0,.714-1.119,1.137,1.137,0,0,0-.493-1.072,3.62,3.62,0,0,0-1.5-.584,17.153,17.153,0,0,1-3.616-1.072,3.525,3.525,0,0,1-2.2-2.942,4.809,4.809,0,0,1,.344-2.733,4.575,4.575,0,0,1,2.693-2.349,6.781,6.781,0,0,1,2.94-.363,7.125,7.125,0,0,1,2.237.491,4.836,4.836,0,0,1,2.26,1.923.909.909,0,0,1-.507,1.423c-.407.1-.8.268-1.2.391a.835.835,0,0,1-1.044-.365,2.48,2.48,0,0,0-2.093-1.149,3.735,3.735,0,0,0-1.254.13,1.222,1.222,0,0,0-.991,1.239,1.209,1.209,0,0,0,.73,1.1,4.534,4.534,0,0,0,1.2.372,26.189,26.189,0,0,1,2.826.719,5.085,5.085,0,0,1,2.147,1.291,3.854,3.854,0,0,1,1.1,2.6,4.437,4.437,0,0,1-.893,3.046,5.072,5.072,0,0,1-2.367,1.7A8.309,8.309,0,0,1,45.92,120.091Z" transform="translate(-39.696 -104.71)" fill="#bcbcbc"/>
    <path id="Path_3718" data-name="Path 3718" d="M103.936,112.392a9.633,9.633,0,0,0,.314,2.84,2.737,2.737,0,0,0,.83,1.4,2.634,2.634,0,0,0,2.5.484,1.93,1.93,0,0,0,1.035-.716,3.929,3.929,0,0,0,.616-1.207.872.872,0,0,1,1.046-.7c.507.037,1.014.058,1.523.091a.858.858,0,0,1,.854.74.932.932,0,0,1-.039.386,5.47,5.47,0,0,1-4.107,4.172,6.8,6.8,0,0,1-4.277-.191,6.163,6.163,0,0,1-3.6-3.74,10.21,10.21,0,0,1-.567-4.47,8.579,8.579,0,0,1,.723-2.991,6.134,6.134,0,0,1,5.149-3.742,7.6,7.6,0,0,1,2.767.191,4.962,4.962,0,0,1,3.256,2.581,7.076,7.076,0,0,1,.7,2.047.819.819,0,0,1-.728.97c-.623.056-1.251.081-1.877.135a.872.872,0,0,1-.993-.837,3.471,3.471,0,0,0-.13-.6,2.187,2.187,0,0,0-2.3-1.709,2.13,2.13,0,0,0-1.914,1.074,4.838,4.838,0,0,0-.6,1.7A12.685,12.685,0,0,0,103.936,112.392Z" transform="translate(-85.78 -104.72)" fill="#bcbcbc"/>
    <path id="Path_3719" data-name="Path 3719" d="M133.085,187.42c0-.993-.021-1.984,0-2.977a2.112,2.112,0,0,0-4.221,0V189.7a1.085,1.085,0,0,1-.323.812,1.007,1.007,0,0,1-1.135.233.958.958,0,0,1-.658-.949v-5.558a3.9,3.9,0,0,1,1.449-2.986,4.1,4.1,0,0,1,3.17-1.014,4.235,4.235,0,0,1,3.81,3.688c.025.282.037.558.037.84v5.863a.156.156,0,0,1-.163.158h-1.832c-.1,0-.151-.042-.149-.144s0-.139,0-.209Z" transform="translate(-106.293 -162.679)" fill="#bcbcbc"/>
    <path id="Path_3720" data-name="Path 3720" d="M47.438,181.213c-.444.4-.891.807-1.33,1.214-.1.093-.177.047-.267,0a3.593,3.593,0,0,0-1.163-.37,3.4,3.4,0,1,0,2.742,4.6c.1-.27.107-.27.4-.27h1.321a.7.7,0,0,1,.323.037,5.117,5.117,0,0,1-1.147,2.426,5.182,5.182,0,0,1-3.04,1.8,5.323,5.323,0,0,1-3.991-9.644A5.259,5.259,0,0,1,47.438,181.213Z" transform="translate(-38.9 -162.602)" fill="#bcbcbc"/>
    <path id="Path_3721" data-name="Path 3721" d="M80.82,180.253a5.247,5.247,0,0,1,5.235,4.388,5.325,5.325,0,0,1-8.126,5.377,1.745,1.745,0,0,1-.174-.118c-.142-.107-.147-.133-.021-.254.247-.232.5-.465.754-.7.135-.121.277-.232.4-.363a.232.232,0,0,1,.339-.049,3.218,3.218,0,0,0,1.135.368,3.179,3.179,0,0,0,2.237-.488,3.255,3.255,0,0,0,1.591-3.214,3.4,3.4,0,0,0-6.553-.9c-.109.274-.112.272-.407.272h-1.4c-.258,0-.277-.023-.212-.281a5.349,5.349,0,0,1,4.535-4.033A5.2,5.2,0,0,1,80.82,180.253Z" transform="translate(-67.036 -162.7)" fill="#bcbcbc"/>
    <path id="Path_3722" data-name="Path 3722" d="M218.149,186.541h-2.463c-.28,0-.284,0-.263.291a2.121,2.121,0,0,0,1.628,1.761,2.865,2.865,0,0,0,.6.056h2.672a1.517,1.517,0,0,0,.182,0c.155-.014.209.056.207.209v1.293c0,.2.088.444-.056.574s-.365.035-.553.035c-.891,0-1.781-.012-2.672,0a4.225,4.225,0,0,1-4.109-3.625,11.1,11.1,0,0,1-.042-1.109v-1.681a4.244,4.244,0,0,1,8.449-.521,9.724,9.724,0,0,1,.014,1.8,1.044,1.044,0,0,1-1.09.912C219.81,186.544,218.98,186.541,218.149,186.541Zm-.621-2.144h1.889c.2,0,.232-.033.2-.233a2.236,2.236,0,0,0-.291-.844,2.108,2.108,0,0,0-3.9.8c-.019.263,0,.277.249.277Z" transform="translate(-172.7 -162.63)" fill="#bcbcbc"/>
    <path id="Path_3723" data-name="Path 3723" d="M176.3,187.42c0-.993-.019-1.984,0-2.977a2.112,2.112,0,0,0-4.221,0v5.26a1.08,1.08,0,0,1-.321.811,1.009,1.009,0,0,1-1.137.233.963.963,0,0,1-.658-.949c0-1.86-.012-3.7,0-5.558a3.892,3.892,0,0,1,1.451-2.986,4.093,4.093,0,0,1,3.168-1.014,4.23,4.23,0,0,1,3.809,3.688c.028.282.039.558.039.84v5.863a.158.158,0,0,1-.165.158h-1.832c-.1,0-.149-.042-.147-.144s0-.139,0-.209Z" transform="translate(-139.455 -162.678)" fill="#bcbcbc"/>
    <path id="Path_3724" data-name="Path 3724" d="M256.608,185.546V184.4a4.24,4.24,0,0,1,8.23-1.34,4.48,4.48,0,0,1,.233,1.163c.021.246,0,.267-.233.269h-1.651c-.233,0-.233,0-.256-.233a2.072,2.072,0,0,0-1.549-1.823,2.109,2.109,0,0,0-2.658,2.007v2.163a2.111,2.111,0,0,0,1.919,2.093,2.142,2.142,0,0,0,2.265-1.66.113.113,0,0,1,.012-.061c.026-.114-.035-.263.058-.342s.27-.04.407-.04h1.442c.254,0,.263.012.251.247a4.251,4.251,0,0,1-7.979,1.772,3.627,3.627,0,0,1-.484-1.719c-.014-.465,0-.93,0-1.381Z" transform="translate(-205.954 -162.709)" fill="#bcbcbc"/>
    <path id="Path_3725" data-name="Path 3725" d="M301.979,170.753c0,.63.019,1.263,0,1.893a2.111,2.111,0,0,0,2.093,2.107h.872c.147,0,.218.035.216.2v1.711c0,.107,0,.2-.151.2a8.84,8.84,0,0,1-2.06-.128,4.293,4.293,0,0,1-3.07-3.53,8.324,8.324,0,0,1-.042-.837v-9.109a1.509,1.509,0,0,1,.086-.561,1.056,1.056,0,0,1,1.114-.642,1.038,1.038,0,0,1,.9.77,1.815,1.815,0,0,1,.051.447V166.1c0,.128.049.179.177.177h1.954a1.063,1.063,0,0,1,.576,1.94.972.972,0,0,1-.593.174h-1.832c-.277,0-.279,0-.282.284Z" transform="translate(-239.129 -148.737)" fill="#bcbcbc"/>
  </g>
</svg>
