<?xml version="1.0" encoding="iso-8859-1"?>
<svg
version="1.1" id="Layer_1" xmlns="http://www.w3.org/2000/svg" xmlns:xlink="http://www.w3.org/1999/xlink" x="0px" y="0px"
viewBox="-20 -8 80 34.086" style="fill:#F4F5FA;">
      <g
        id="scm_connect_svg_light"
        data-name="scm connect svg light"
        transform="translate(-0.031 0.028)"
      >
        <path
          id="Path_3716"
          data-name="Path 3716"
          d="M172.156,111.017l.378-1.226,1.136-3.7a.543.543,0,0,1,.616-.458h2.224a.546.546,0,0,1,.622.614v7.835a.575.575,0,0,1-.636.627c-.295-.016-.589,0-.885,0a.534.534,0,0,1-.6-.607v-6.787a.4.4,0,0,0-.114.22l-2.041,6.715c-.11.359-.24.455-.609.455h-.551a.505.505,0,0,1-.564-.416q-.6-2.007-1.2-4.013l-.812-2.712a.421.421,0,0,0-.093-.2v6.761a.534.534,0,0,1-.59.582h-.63a.526.526,0,0,1-.564-.526,1.865,1.865,0,0,1,0-.2v-7.639a1.8,1.8,0,0,1,.017-.275.494.494,0,0,1,.41-.423,1.121,1.121,0,0,1,.2-.017h2.2a.669.669,0,0,1,.395.092.6.6,0,0,1,.231.354q.645,2.218,1.3,4.434A2.7,2.7,0,0,0,172.156,111.017Z"
          transform="translate(-149.126 -105.52)"
          fill="#bcbcbc"
        />
        <path
          id="Path_3717"
          data-name="Path 3717"
          d="M43.575,114.021a4.564,4.564,0,0,1-2.365-.564,2.771,2.771,0,0,1-1.173-1.287.529.529,0,0,1,.385-.8c.3-.072.6-.141.9-.209a.52.52,0,0,1,.564.221.568.568,0,0,1,.031.049,1.693,1.693,0,0,0,1.514.895,2.161,2.161,0,0,0,1.2-.216.768.768,0,0,0,.433-.678.689.689,0,0,0-.3-.65,2.194,2.194,0,0,0-.909-.354,10.4,10.4,0,0,1-2.192-.65A2.136,2.136,0,0,1,40.328,108a2.914,2.914,0,0,1,.209-1.656,2.772,2.772,0,0,1,1.632-1.424,4.11,4.11,0,0,1,1.782-.22,4.318,4.318,0,0,1,1.356.3,2.931,2.931,0,0,1,1.37,1.166.551.551,0,0,1-.307.863c-.247.063-.485.162-.729.237a.506.506,0,0,1-.633-.221,1.5,1.5,0,0,0-1.268-.7,2.264,2.264,0,0,0-.76.079.741.741,0,0,0-.6.751.733.733,0,0,0,.443.668,2.748,2.748,0,0,0,.729.225,15.872,15.872,0,0,1,1.712.436,3.082,3.082,0,0,1,1.3.782,2.336,2.336,0,0,1,.665,1.576,2.689,2.689,0,0,1-.541,1.846,3.074,3.074,0,0,1-1.435,1.029A5.036,5.036,0,0,1,43.575,114.021Z"
          transform="translate(-39.791 -104.71)"
          fill="#bcbcbc"
        />
        <path
          id="Path_3718"
          data-name="Path 3718"
          d="M102.392,109.36a5.838,5.838,0,0,0,.19,1.721,1.659,1.659,0,0,0,.5.846,1.6,1.6,0,0,0,1.517.293,1.17,1.17,0,0,0,.627-.434,2.381,2.381,0,0,0,.374-.732.528.528,0,0,1,.634-.423c.307.022.615.035.923.055a.52.52,0,0,1,.517.448.565.565,0,0,1-.024.234,3.315,3.315,0,0,1-2.489,2.529,4.121,4.121,0,0,1-2.592-.115,3.735,3.735,0,0,1-2.183-2.266,6.188,6.188,0,0,1-.344-2.709,5.2,5.2,0,0,1,.438-1.812,3.717,3.717,0,0,1,3.121-2.268,4.6,4.6,0,0,1,1.677.116,3.007,3.007,0,0,1,1.973,1.564,4.288,4.288,0,0,1,.423,1.24.5.5,0,0,1-.441.588c-.378.034-.758.049-1.137.082a.529.529,0,0,1-.6-.507,2.1,2.1,0,0,0-.079-.364,1.325,1.325,0,0,0-1.4-1.036,1.291,1.291,0,0,0-1.16.651,2.932,2.932,0,0,0-.365,1.032A7.688,7.688,0,0,0,102.392,109.36Z"
          transform="translate(-91.376 -104.721)"
          fill="#bcbcbc"
        />
        <path
          id="Path_3719"
          data-name="Path 3719"
          d="M130.588,184.582c0-.6-.013-1.2,0-1.8a1.28,1.28,0,0,0-2.558,0v3.188a.657.657,0,0,1-.2.492.611.611,0,0,1-.688.141.581.581,0,0,1-.4-.575v-3.369a2.362,2.362,0,0,1,.878-1.81,2.485,2.485,0,0,1,1.921-.614,2.567,2.567,0,0,1,2.309,2.235c.015.171.022.338.022.509v3.553a.1.1,0,0,1-.1.1h-1.111c-.059,0-.092-.025-.09-.088s0-.084,0-.127Z"
          transform="translate(-114.339 -169.599)"
          fill="#bcbcbc"
        />
        <path
          id="Path_3720"
          data-name="Path 3720"
          d="M44.086,180.781c-.269.245-.54.489-.806.736-.062.057-.107.028-.162,0a2.178,2.178,0,0,0-.7-.224,2.063,2.063,0,1,0,1.662,2.789c.063-.164.065-.164.244-.164h.8a.425.425,0,0,1,.2.023,3.1,3.1,0,0,1-.695,1.47,3.141,3.141,0,0,1-1.842,1.091,3.226,3.226,0,0,1-2.419-5.845A3.187,3.187,0,0,1,44.086,180.781Z"
          transform="translate(-38.9 -169.513)"
          fill="#bcbcbc"
        />
        <path
          id="Path_3721"
          data-name="Path 3721"
          d="M78.761,180.25a3.18,3.18,0,0,1,3.173,2.66,3.228,3.228,0,0,1-4.925,3.259,1.058,1.058,0,0,1-.106-.072c-.086-.065-.089-.08-.013-.154.149-.141.3-.282.457-.423.082-.073.168-.141.244-.22a.141.141,0,0,1,.206-.03,1.95,1.95,0,0,0,.688.223,1.926,1.926,0,0,0,1.356-.3,1.973,1.973,0,0,0,.964-1.948,2.061,2.061,0,0,0-3.972-.547c-.066.166-.068.165-.247.165h-.846c-.156,0-.168-.014-.128-.17a3.242,3.242,0,0,1,2.748-2.444A3.152,3.152,0,0,1,78.761,180.25Z"
          transform="translate(-70.395 -169.622)"
          fill="#bcbcbc"
        />
        <path
          id="Path_3722"
          data-name="Path 3722"
          d="M216.23,184.025h-1.492c-.169,0-.172,0-.159.176a1.286,1.286,0,0,0,.987,1.067,1.737,1.737,0,0,0,.362.034h1.619a.921.921,0,0,0,.11,0c.094-.008.127.034.125.127v.784c0,.118.053.269-.034.348s-.221.021-.335.021c-.54,0-1.08-.007-1.62,0a2.561,2.561,0,0,1-2.49-2.2,6.724,6.724,0,0,1-.026-.672v-1.019a2.572,2.572,0,0,1,5.121-.316,5.894,5.894,0,0,1,.009,1.092.633.633,0,0,1-.661.552C217.236,184.026,216.733,184.025,216.23,184.025Zm-.376-1.3H217c.124,0,.141-.02.123-.141a1.356,1.356,0,0,0-.176-.512,1.278,1.278,0,0,0-2.366.482c-.011.159,0,.168.151.168Z"
          transform="translate(-188.672 -169.544)"
          fill="#bcbcbc"
        />
        <path
          id="Path_3723"
          data-name="Path 3723"
          d="M173.8,184.582c0-.6-.011-1.2,0-1.8a1.28,1.28,0,0,0-2.558,0v3.188a.655.655,0,0,1-.195.492.611.611,0,0,1-.689.141.584.584,0,0,1-.4-.575c0-1.127-.007-2.245,0-3.369a2.359,2.359,0,0,1,.88-1.81,2.481,2.481,0,0,1,1.92-.615,2.564,2.564,0,0,1,2.309,2.235c.017.171.024.338.024.509v3.553a.1.1,0,0,1-.1.1h-1.111c-.059,0-.09-.025-.089-.088s0-.084,0-.127Z"
          transform="translate(-151.459 -169.598)"
          fill="#bcbcbc"
        />
        <path
          id="Path_3724"
          data-name="Path 3724"
          d="M256.608,183.462v-.692a2.569,2.569,0,0,1,4.988-.812,2.714,2.714,0,0,1,.141.7c.013.149,0,.162-.141.163h-1c-.141,0-.141,0-.155-.141a1.256,1.256,0,0,0-.939-1.1,1.278,1.278,0,0,0-1.611,1.216v1.311a1.28,1.28,0,0,0,1.163,1.269,1.3,1.3,0,0,0,1.373-1.006.068.068,0,0,1,.007-.037c.016-.069-.021-.159.035-.207s.163-.024.247-.024h.874c.154,0,.159.007.152.15a2.576,2.576,0,0,1-4.836,1.074,2.2,2.2,0,0,1-.293-1.042c-.008-.282,0-.564,0-.837Z"
          transform="translate(-225.897 -169.633)"
          fill="#bcbcbc"
        />
        <path
          id="Path_3725"
          data-name="Path 3725"
          d="M301.134,167.324c0,.382.011.765,0,1.147a1.28,1.28,0,0,0,1.269,1.277h.529c.089,0,.132.021.131.121v1.037c0,.065,0,.124-.092.123a5.358,5.358,0,0,1-1.249-.078,2.6,2.6,0,0,1-1.86-2.14,5.044,5.044,0,0,1-.025-.507v-5.521a.914.914,0,0,1,.052-.34.64.64,0,0,1,.675-.389.629.629,0,0,1,.544.467,1.1,1.1,0,0,1,.031.271v1.713c0,.078.03.108.107.107h1.184a.644.644,0,0,1,.349,1.176.589.589,0,0,1-.359.106h-1.111c-.168,0-.169,0-.171.172Z"
          transform="translate(-263.032 -153.993)"
          fill="#bcbcbc"
        />
      </g>
    </svg>
