
<!-- <svg xmlns="http://www.w3.org/2000/svg" viewBox="-220 -65 1279.5 382">
<defs>
<style>
.cls-1{fill:#919191;}.cls-2{fill:#595959;}
</style>
</defs>
<g id="Layer_2" data-name="Layer 2">
<g id="Layer_1-2" data-name="Layer 1">
<path class="cls-1" d="M22.84,117.21a39.49,39.49,0,0,0,6.23,3.58,92.1,92.1,0,0,0,12.23,4.84A151.23,151.23,0,0,0,58.38,130a105.67,105.67,0,0,0,21,2,68.47,68.47,0,0,0,14.77-1.27,25,25,0,0,0,8.54-3.34,9.81,9.81,0,0,0,3.92-4.74,16.46,16.46,0,0,0,.92-5.42,11.15,11.15,0,0,0-4.5-9.11q-4.5-3.57-16.72-5.65L62.76,98.29A133.9,133.9,0,0,1,44.3,93.68a58.39,58.39,0,0,1-16.5-8.31A41.68,41.68,0,0,1,15.92,71.76q-4.62-8.31-4.61-20.54a51,51,0,0,1,3.92-20A43.15,43.15,0,0,1,27.23,15,59.15,59.15,0,0,1,47.65,4Q60,0,76.6,0a153.25,153.25,0,0,1,21,1.27,116.91,116.91,0,0,1,15.46,3.11,77.37,77.37,0,0,1,10.5,3.7,55.6,55.6,0,0,1,5.88,3,31,31,0,0,1,7.5,6.34A14,14,0,0,1,140.52,27a20.41,20.41,0,0,1-1.39,7.49,35.3,35.3,0,0,1-3.34,6.58,29,29,0,0,1-4.27,5.19,38.58,38.58,0,0,1-3.92,3.35,40.1,40.1,0,0,0-6.92-5.19,57.28,57.28,0,0,0-11.08-5.2A103.58,103.58,0,0,0,94.83,35.3a93.52,93.52,0,0,0-17.76-1.61,54.58,54.58,0,0,0-14.31,1.5,22,22,0,0,0-8,3.69,10.11,10.11,0,0,0-3.46,5,18.24,18.24,0,0,0-.81,5.08,12.91,12.91,0,0,0,.58,3.92,7.58,7.58,0,0,0,2.77,3.57,22.61,22.61,0,0,0,6.23,3.23,73,73,0,0,0,11,2.89l24.46,4.84a135.61,135.61,0,0,1,22.72,6.35,59.4,59.4,0,0,1,16.5,9.34,35.06,35.06,0,0,1,10,13.39,47.65,47.65,0,0,1,3.34,18.69q0,24.22-18.11,37.84T78.91,166.59a139.64,139.64,0,0,1-27.57-2.54,163.53,163.53,0,0,1-22-5.88A130.4,130.4,0,0,1,14,151.82c-3.92-2-6.27-3.38-7-4.15Z"/>
<path class="cls-1" d="M309.64,150.67a75.14,75.14,0,0,1-19.15,9.69,115.59,115.59,0,0,1-16.84,4.38,117.85,117.85,0,0,1-21.92,1.85A102.2,102.2,0,0,1,219,161.4a77.08,77.08,0,0,1-27.12-15.58A73.9,73.9,0,0,1,173.4,120q-6.81-15.45-6.81-36,0-20.08,6.57-35.65a76.36,76.36,0,0,1,18-26.3A78,78,0,0,1,217.93,5.65,95.22,95.22,0,0,1,251,0a115.87,115.87,0,0,1,17.07,1.15,92.11,92.11,0,0,1,13.5,3,69.09,69.09,0,0,1,10,3.93,75.76,75.76,0,0,1,6.69,3.69A25.85,25.85,0,0,1,306,20a18.44,18.44,0,0,1,2.31,8.88,20.42,20.42,0,0,1-1.73,8.31,33.31,33.31,0,0,1-4.15,7,41.76,41.76,0,0,1-4.85,5.3,24.5,24.5,0,0,1-4,3.12q-2.31-2.31-5.88-5.42A41.49,41.49,0,0,0,279,41.53a66.11,66.11,0,0,0-11.66-4.38,54.12,54.12,0,0,0-14.65-1.85,49,49,0,0,0-18.46,3.35,41.22,41.22,0,0,0-14.42,9.69,43.84,43.84,0,0,0-9.46,15.34A58,58,0,0,0,207,84a52,52,0,0,0,3.69,20.3,40.89,40.89,0,0,0,10.15,14.65,42.71,42.71,0,0,0,15.35,8.89,59.82,59.82,0,0,0,19.26,3q12.91,0,22.27-3.23t14.19-6.7l17.3,29.77Z"/><path class="cls-1" d="M335,24a23.72,23.72,0,0,1,2.19-9.69,16,16,0,0,1,5.08-6.12,20,20,0,0,1,7-3.11,35.84,35.84,0,0,1,8.3-.93,40.46,40.46,0,0,1,15.23,2.54c4.16,1.7,6.92,3.16,8.31,4.39q8.31,17.07,17.42,36.34t18.57,37.26q8.31-16.62,16.27-32.76t14.65-30.69q4.38-9.92,10.73-13.5a28.91,28.91,0,0,1,14.42-3.58,44.23,44.23,0,0,1,15.35,2.43Q495.15,9,497,10.38l8.77,152.06H467l-5.3-94.6-8.54,17.53q-4.4,9-8.42,17.77t-7.62,16.73q-3.57,7.95-6.34,14.19H402.17q-2.55-6.24-6.35-14.54t-8-17.31q-4.16-9-8.54-17.88t-8.07-16.26l-5.08,94.37h-39Z"/><path class="cls-2" d="M238.72,242.06A47.93,47.93,0,0,1,243,221.48a44.84,44.84,0,0,1,11.73-15.4,52.2,52.2,0,0,1,17.7-9.66,72.08,72.08,0,0,1,22.42-3.33,73.15,73.15,0,0,1,22.53,3.33,52,52,0,0,1,17.82,9.66,43.56,43.56,0,0,1,11.61,15.4,49.12,49.12,0,0,1,4.14,20.58v69.67H324.71v-63q0-15.63-7.59-23.8t-22.3-8.16q-14.94,0-22.42,8.16t-7.47,23.8v63H238.72Z"/><path class="cls-2" d="M377.59,242.06a48.08,48.08,0,0,1,4.25-20.58,45,45,0,0,1,11.73-15.4,52.2,52.2,0,0,1,17.7-9.66,72.08,72.08,0,0,1,22.42-3.33,73.22,73.22,0,0,1,22.54,3.33A52.07,52.07,0,0,1,474,206.08a43.7,43.7,0,0,1,11.62,15.4,49.12,49.12,0,0,1,4.14,20.58v69.67H463.58v-63q0-15.63-7.58-23.8t-22.31-8.16q-14.94,0-22.42,8.16t-7.47,23.8v63H377.59Z"/><path class="cls-2" d="M617.87,300.31q-1.79,1.13-5.59,3.13a56.43,56.43,0,0,1-9.51,3.81,106.38,106.38,0,0,1-13.21,3.13,93.16,93.16,0,0,1-16.46,1.35,70.18,70.18,0,0,1-23.39-3.81,54.18,54.18,0,0,1-19-11.3,53.35,53.35,0,0,1-12.88-18.36,62.33,62.33,0,0,1-4.7-25,63.47,63.47,0,0,1,4.59-24.51,56.11,56.11,0,0,1,12.76-19,57.59,57.59,0,0,1,19.25-12.32A65.71,65.71,0,0,1,574,193.09a64.51,64.51,0,0,1,20.6,3,47.55,47.55,0,0,1,15.1,8.06,32.91,32.91,0,0,1,12.43,26.08,33.84,33.84,0,0,1-2.91,14.21q-2.91,6.38-10.3,11T589,262.59q-12.54,2.58-31.79,2.58-4.47,0-8.39-.11c-2.62-.08-5.41-.19-8.4-.34a27.85,27.85,0,0,0,11.08,18.47q9.29,7.05,26.53,7.05a60.65,60.65,0,0,0,19.59-3.14,63.13,63.13,0,0,0,6.71-2.68q2.8-1.35,4.15-2ZM539.3,247.26q5.16.23,9.85.22h9.41a102.84,102.84,0,0,0,19.92-1.56,40.58,40.58,0,0,0,11.86-4c2.84-1.64,4.7-3.51,5.6-5.6a16.4,16.4,0,0,0,1.34-6.49q0-8.51-6.83-12.76t-16.9-4.25A34.23,34.23,0,0,0,559,215.7a31.57,31.57,0,0,0-10.52,7.72,35.41,35.41,0,0,0-6.6,11.08A40,40,0,0,0,539.3,247.26Z"/><path class="cls-2" d="M627.25,311.73q1.18-1.67,5.7-7.24T644,291q6.54-7.95,14.49-17.57T674.74,254q-11.16-12.1-19.11-20.06t-12.94-13.41a59.43,59.43,0,0,1-7.36-9.5A15.73,15.73,0,0,1,633,203a10.2,10.2,0,0,1,3.09-7.25q3.09-3.19,10.21-3.2a24.61,24.61,0,0,1,7.6,1.07,39.94,39.94,0,0,1,4.27,1.54c.63.79,2.1,2.49,4.39,5.11s5.07,5.73,8.32,9.37,6.68,7.6,10.32,11.88,7.28,8.39,10.93,12.34q4.5-5.7,9.14-11.16t8.42-10.09q3.81-4.64,6.53-7.83c1.82-2.14,3-3.52,3.45-4.16a29.82,29.82,0,0,1,7.59-6.05,18.93,18.93,0,0,1,9-2,22.46,22.46,0,0,1,11.39,2.73c3.17,1.82,5.15,3.29,5.94,4.39q-1.91,2.15-6.29,7.24T737,219l-13.18,15.55q-7.24,8.55-14.84,17.57,8.55,10,16.86,19.47t15.31,17.57q7,8.07,12.11,14t7,8.55H726.74q-5.46-6.41-14.13-16.5T691.84,271.6q-10.7,12.82-19.59,23.63t-13.18,16.5Z"/><path class="cls-2" d="M773.41,171.42q0-6.48,3.71-9.39t10.21-2.9a27.64,27.64,0,0,1,7.77,1.05c2.39.69,4,1.2,4.75,1.5v30.38h33.62q7.66,0,10.79,3.14t3.13,9.16a22.3,22.3,0,0,1-1.16,7.3,47.45,47.45,0,0,1-1.85,4.76H799.85v51.71a25.48,25.48,0,0,0,1.62,9.85,15.36,15.36,0,0,0,4.52,6.15,17,17,0,0,0,6.73,3.25,33.77,33.77,0,0,0,8,.92,36.71,36.71,0,0,0,12.52-2.08,35.53,35.53,0,0,0,8.35-3.94l10.67,17.62q-1.86,1.39-5.22,3.48a47.69,47.69,0,0,1-8.23,3.94,73,73,0,0,1-10.9,3.13,64,64,0,0,1-13.22,1.28q-20.41,0-30.84-10.56t-10.44-27.71Z"/><path class="cls-1" d="M95.8,204.38c-5,4.56-10,9.07-15,13.66-1.13,1.05-2,.52-3,0a40.25,40.25,0,0,0-13.1-4.18c-16.65-2.43-35,7.54-41.19,25.85a38.3,38.3,0,0,0,72.05,25.95c1.16-3.05,1.2-3,4.52-3,5,0,9.91,0,14.87,0a7.6,7.6,0,0,1,3.62.4,57.51,57.51,0,0,1-12.89,27.3,58.4,58.4,0,0,1-34.2,20.26A59.89,59.89,0,0,1,26.59,202C49.76,186.42,79.43,190.46,95.8,204.38Z"/><path class="cls-2" d="M154.82,192.48c27-.86,53.74,19.08,58.9,49.37a59.83,59.83,0,0,1-48.09,69c-15.58,2.82-30-.21-43.34-8.48a21.66,21.66,0,0,1-2-1.32c-1.57-1.21-1.65-1.51-.23-2.85,2.79-2.64,5.65-5.18,8.49-7.75,1.5-1.36,3.11-2.63,4.51-4.08a2.72,2.72,0,0,1,3.83-.55,36.54,36.54,0,0,0,12.77,4.12,35.73,35.73,0,0,0,25.17-5.48c13.1-8.42,19.28-20.73,17.91-36.17-1.8-20.24-18.81-33.73-36-34.5A38.54,38.54,0,0,0,119,238.11c-1.22,3.07-1.25,3.06-4.58,3.07-5.18,0-10.37,0-15.55,0-2.92,0-3.12-.25-2.4-3.16a60.1,60.1,0,0,1,50.91-45.49A57.37,57.37,0,0,1,154.82,192.48Z"/></g></g></svg> -->

<svg xmlns="http://www.w3.org/2000/svg" viewBox="-220 -65 1279.5 382">
<defs>
<style>.cls-1{fill:#bcbcbc;}</style></defs>
<path class="cls-1" d="M116.71,481.29a38.9,38.9,0,0,0,6.23,3.57,92,92,0,0,0,12.23,4.85,151.36,151.36,0,0,0,17.08,4.38,105.6,105.6,0,0,0,21,2A69.21,69.21,0,0,0,188,494.79a25.15,25.15,0,0,0,8.54-3.35,9.85,9.85,0,0,0,3.92-4.73,16.55,16.55,0,0,0,.92-5.42,11.17,11.17,0,0,0-4.5-9.12q-4.5-3.57-16.72-5.65l-23.54-4.15a135.4,135.4,0,0,1-18.46-4.62,58.1,58.1,0,0,1-16.5-8.3,41.71,41.71,0,0,1-11.88-13.62q-4.62-8.29-4.61-20.53a50.94,50.94,0,0,1,3.92-20,43.26,43.26,0,0,1,12-16.27,59.48,59.48,0,0,1,20.42-11q12.33-4,28.95-4a153.25,153.25,0,0,1,21,1.27,116.78,116.78,0,0,1,15.46,3.12,76.16,76.16,0,0,1,10.5,3.69,55.6,55.6,0,0,1,5.88,3,31.5,31.5,0,0,1,7.5,6.35,14,14,0,0,1,3.58,9.57,20.42,20.42,0,0,1-1.39,7.5,35.3,35.3,0,0,1-3.34,6.58,29.42,29.42,0,0,1-4.27,5.19,39.6,39.6,0,0,1-3.92,3.34,40.88,40.88,0,0,0-6.93-5.19,57.49,57.49,0,0,0-11.07-5.19,102.26,102.26,0,0,0-14.77-3.92,92.77,92.77,0,0,0-17.76-1.62,54.58,54.58,0,0,0-14.31,1.5,22,22,0,0,0-8,3.69,10.19,10.19,0,0,0-3.46,5,18.24,18.24,0,0,0-.81,5.08,12.91,12.91,0,0,0,.58,3.92,7.55,7.55,0,0,0,2.77,3.58,23.17,23.17,0,0,0,6.23,3.23,74.36,74.36,0,0,0,11,2.88l24.45,4.85a135.51,135.51,0,0,1,22.73,6.34,59.42,59.42,0,0,1,16.5,9.35,35.05,35.05,0,0,1,10,13.38A47.65,47.65,0,0,1,242,479.21q0,24.23-18.11,37.84t-51.11,13.61a139.67,139.67,0,0,1-27.57-2.53,163.44,163.44,0,0,1-22-5.89,130.58,130.58,0,0,1-15.34-6.34c-3.92-2-6.27-3.38-7-4.16Z" transform="translate(-93.87 -364.07)"/><path class="cls-1" d="M403.51,514.74a73.07,73.07,0,0,1-7.26,4.5,77.79,77.79,0,0,1-11.89,5.19,114.25,114.25,0,0,1-16.84,4.39,117.9,117.9,0,0,1-21.92,1.84,102.2,102.2,0,0,1-32.76-5.19,77.21,77.21,0,0,1-27.12-15.57,73.87,73.87,0,0,1-18.45-25.84q-6.81-15.46-6.81-36,0-20.07,6.57-35.65a76.36,76.36,0,0,1,18-26.3,78.12,78.12,0,0,1,26.77-16.38,95,95,0,0,1,33.11-5.66A114.43,114.43,0,0,1,362,365.23a90.83,90.83,0,0,1,13.5,3,69.16,69.16,0,0,1,10,3.92c2.77,1.38,5,2.62,6.69,3.69a26.06,26.06,0,0,1,7.61,8.19,18.45,18.45,0,0,1,2.31,8.89,20.37,20.37,0,0,1-1.73,8.3,33.74,33.74,0,0,1-4.15,7,41.21,41.21,0,0,1-4.85,5.31,24.34,24.34,0,0,1-4,3.11q-2.31-2.3-5.88-5.42a41.08,41.08,0,0,0-8.65-5.65,66.89,66.89,0,0,0-11.66-4.39,54.13,54.13,0,0,0-14.65-1.84,49,49,0,0,0-18.46,3.34,41.22,41.22,0,0,0-14.42,9.69,44,44,0,0,0-9.46,15.35,58,58,0,0,0-3.34,20.3,52,52,0,0,0,3.69,20.31A41,41,0,0,0,314.68,483,42.88,42.88,0,0,0,330,491.9a59.88,59.88,0,0,0,19.27,3q12.91,0,22.27-3.23T385.75,485l17.3,29.76Z" transform="translate(-93.87 -364.07)"/><path class="cls-1" d="M428.89,388.07a23.8,23.8,0,0,1,2.19-9.69,16.08,16.08,0,0,1,5.08-6.11,20.21,20.21,0,0,1,7-3.12,36.4,36.4,0,0,1,8.3-.92,40.46,40.46,0,0,1,15.23,2.54c4.16,1.69,6.92,3.15,8.31,4.38q8.31,17.09,17.42,36.34T511,448.75q8.31-16.61,16.27-32.76T542,385.3q4.38-9.92,10.73-13.5a28.9,28.9,0,0,1,14.42-3.57,44.38,44.38,0,0,1,15.34,2.42c4.39,1.62,7.19,2.88,8.43,3.81l8.77,152.05H560.87l-5.31-94.6q-4.14,8.54-8.53,17.54t-8.42,17.76Q534.56,476,531,483.94t-6.34,14.19H496q-2.55-6.22-6.35-14.54t-8-17.3q-4.16-9-8.54-17.88t-8.07-16.27L460,526.51h-39Z" transform="translate(-93.87 -364.07)"/><path class="cls-1" d="M332.59,606.14a47.9,47.9,0,0,1,4.25-20.58,44.78,44.78,0,0,1,11.73-15.41,52,52,0,0,1,17.7-9.65,72.07,72.07,0,0,1,22.42-3.34,73.2,73.2,0,0,1,22.53,3.34A51.84,51.84,0,0,1,429,570.15a43.62,43.62,0,0,1,11.61,15.41,49.09,49.09,0,0,1,4.14,20.58V675.8H418.58v-63q0-15.63-7.59-23.79t-22.3-8.16q-15,0-22.42,8.16T358.8,612.8v63H332.59Z" transform="translate(-93.87 -364.07)"/><path class="cls-1" d="M471.46,606.14a48,48,0,0,1,4.25-20.58,44.9,44.9,0,0,1,11.73-15.41,52,52,0,0,1,17.7-9.65,72.07,72.07,0,0,1,22.42-3.34,73.15,73.15,0,0,1,22.53,3.34,51.84,51.84,0,0,1,17.82,9.65,43.5,43.5,0,0,1,11.61,15.41,49.09,49.09,0,0,1,4.14,20.58V675.8H557.45v-63q0-15.63-7.58-23.79t-22.31-8.16q-14.94,0-22.42,8.16t-7.47,23.79v63H471.46Z" transform="translate(-93.87 -364.07)"/><path class="cls-1" d="M711.74,664.39c-1.19.74-3,1.79-5.59,3.13a57.34,57.34,0,0,1-9.51,3.8,108.09,108.09,0,0,1-13.21,3.14A93.2,93.2,0,0,1,667,675.8a70.43,70.43,0,0,1-23.39-3.8,54.36,54.36,0,0,1-19-11.31,53.31,53.31,0,0,1-12.88-18.35,62.39,62.39,0,0,1-4.7-25,63.4,63.4,0,0,1,4.59-24.51,56.15,56.15,0,0,1,12.76-19,57.56,57.56,0,0,1,19.25-12.31,65.71,65.71,0,0,1,24.29-4.37,64.22,64.22,0,0,1,20.6,3,47.73,47.73,0,0,1,15.1,8A32.94,32.94,0,0,1,716,594.32a33.88,33.88,0,0,1-2.91,14.22q-2.91,6.38-10.3,11t-19.92,7.17q-12.54,2.57-31.79,2.57c-3,0-5.78,0-8.39-.11s-5.41-.18-8.4-.33a27.83,27.83,0,0,0,11.08,18.46q9.28,7.05,26.53,7a60.75,60.75,0,0,0,10.74-.89,61.37,61.37,0,0,0,15.56-4.93q2.81-1.34,4.14-2Zm-78.57-53.06c3.43.15,6.72.23,9.85.23h9.41A101.94,101.94,0,0,0,672.35,610a40.1,40.1,0,0,0,11.86-4c2.84-1.64,4.7-3.5,5.6-5.59a16.45,16.45,0,0,0,1.34-6.5q0-8.5-6.83-12.76t-16.9-4.25a34.23,34.23,0,0,0-14.55,2.91,31.71,31.71,0,0,0-10.52,7.72,35.27,35.27,0,0,0-6.6,11.09A39.94,39.94,0,0,0,633.17,611.33Z" transform="translate(-93.87 -364.07)"/><path class="cls-1" d="M721.12,675.8q1.18-1.65,5.7-7.24t11-13.53q6.54-7.95,14.49-17.57t16.26-19.35Q757.45,606,749.5,598.05t-12.94-13.42a59,59,0,0,1-7.36-9.5,15.73,15.73,0,0,1-2.38-8.07,10.17,10.17,0,0,1,3.09-7.24q3.09-3.21,10.21-3.21a24.91,24.91,0,0,1,7.6,1.07,39.94,39.94,0,0,1,4.27,1.54c.63.8,2.1,2.5,4.39,5.11s5.07,5.74,8.31,9.38,6.69,7.6,10.33,11.87,7.28,8.39,10.92,12.35q4.51-5.7,9.15-11.16t8.42-10.09q3.81-4.63,6.53-7.84t3.45-4.15a30.1,30.1,0,0,1,7.59-6.06,19,19,0,0,1,9-2,22.57,22.57,0,0,1,11.39,2.73c3.17,1.83,5.14,3.29,5.94,4.4q-1.91,2.13-6.29,7.24t-10.33,12.11l-13.18,15.55q-7.25,8.55-14.84,17.57,8.55,10,16.86,19.47T835,653.25q7,8.07,12.11,14t7,8.54H820.61q-5.46-6.4-14.13-16.5t-20.77-23.62Q775,648.49,766.12,659.3t-13.18,16.5Z" transform="translate(-93.87 -364.07)"/><path class="cls-1" d="M867.28,535.5q0-6.5,3.71-9.39t10.21-2.9a28,28,0,0,1,7.77,1q3.59,1.05,4.75,1.51v30.38h33.62q7.67,0,10.79,3.13t3.13,9.16a22.26,22.26,0,0,1-1.16,7.3,46.47,46.47,0,0,1-1.85,4.76H893.72V632.2a25.54,25.54,0,0,0,1.62,9.86,15.43,15.43,0,0,0,4.52,6.15,17,17,0,0,0,6.73,3.24,33.77,33.77,0,0,0,8,.93,36.72,36.72,0,0,0,12.52-2.09,35.13,35.13,0,0,0,8.35-3.94L946.13,664q-1.86,1.38-5.22,3.47a48.42,48.42,0,0,1-8.23,3.95,74.18,74.18,0,0,1-10.9,3.13,64.7,64.7,0,0,1-13.22,1.27q-20.41,0-30.84-10.55t-10.44-27.71Z" transform="translate(-93.87 -364.07)"/><path class="cls-1" d="M189.67,568.45c-5,4.56-10,9.07-15,13.66-1.13,1-2,.53-3,0a40.09,40.09,0,0,0-13.1-4.18c-16.66-2.43-35,7.53-41.19,25.85-7.79,23.14,8.22,47.81,32.39,50.24a38.51,38.51,0,0,0,39.66-24.3c1.16-3,1.19-3,4.52-3,4.95,0,9.91,0,14.87,0a7.46,7.46,0,0,1,3.62.39,57.34,57.34,0,0,1-12.9,27.3,58.36,58.36,0,0,1-34.19,20.27,59.9,59.9,0,0,1-44.9-108.54C143.63,550.5,173.3,554.54,189.67,568.45Z" transform="translate(-93.87 -364.07)"/><path class="cls-1" d="M248.69,556.55c27-.86,53.74,19.09,58.9,49.38a59.83,59.83,0,0,1-48.09,69c-15.59,2.82-30-.22-43.34-8.48-.67-.42-1.34-.85-2-1.32-1.57-1.21-1.65-1.51-.23-2.86,2.79-2.63,5.65-5.17,8.49-7.74,1.5-1.37,3.1-2.63,4.51-4.09a2.72,2.72,0,0,1,3.83-.54A36.54,36.54,0,0,0,243.57,654a35.73,35.73,0,0,0,25.17-5.49c13.1-8.42,19.28-20.73,17.91-36.16-1.8-20.24-18.81-33.73-36-34.5a38.53,38.53,0,0,0-37.72,24.34c-1.22,3.08-1.26,3.07-4.58,3.07-5.18,0-10.37,0-15.55,0-2.92,0-3.12-.26-2.4-3.16a60.06,60.06,0,0,1,50.91-45.49A57.37,57.37,0,0,1,248.69,556.55Z" transform="translate(-93.87 -364.07)"/></svg>